<svg xmlns="http://www.w3.org/2000/svg" width="1600" height="1450" viewBox="0 0 1600 1450">
<rect width="1600" height="1450" fill="#FFFFFF"/>
<text x="92.00" y="62.00" font-family="'IBM Plex Sans', 'Segoe UI', Arial, Helvetica, sans-serif" font-size="42" fill="#1F2328" font-weight="700">Allocate: Planned vs Actual</text>
<text x="92.00" y="95.00" font-family="'IBM Plex Sans', 'Segoe UI', Arial, Helvetica, sans-serif" font-size="21" fill="#6E7781">Schedule as orienting structure; darker overlays mark what actually got allocated under changing conditions.</text>
<line x1="92.00" y1="114.00" x2="1510.00" y2="114.00" stroke="#8D3B32" stroke-width="1.8"/>
<g id="panels"><rect x="92.00" y="210.00" width="1416.00" height="930.00" rx="12" fill="#F8F9FB" stroke="#1F2328" stroke-width="1.1"/><rect x="92.00" y="1170.00" width="1416.00" height="144.00" rx="12" fill="#F8F9FB" stroke="#1F2328" stroke-width="1.0"/></g>
<g id="months"><line x1="92.00" y1="210.00" x2="92.00" y2="1140.00" stroke="#D7DCE2" stroke-width="1" stroke-dasharray="4 5"/><text x="92.00" y="142.00" font-family="'Space Mono', 'Cascadia Mono', Consolas, monospace" font-size="14" fill="#6E7781" text-anchor="middle">Jul</text><line x1="331.87" y1="210.00" x2="331.87" y2="1140.00" stroke="#D7DCE2" stroke-width="1" stroke-dasharray="4 5"/><text x="331.87" y="142.00" font-family="'Space Mono', 'Cascadia Mono', Consolas, monospace" font-size="14" fill="#6E7781" text-anchor="middle">Aug</text><line x1="571.74" y1="210.00" x2="571.74" y2="1140.00" stroke="#D7DCE2" stroke-width="1" stroke-dasharray="4 5"/><text x="571.74" y="142.00" font-family="'Space Mono', 'Cascadia Mono', Consolas, monospace" font-size="14" fill="#6E7781" text-anchor="middle">Sep</text><line x1="803.87" y1="210.00" x2="803.87" y2="1140.00" stroke="#D7DCE2" stroke-width="1" stroke-dasharray="4 5"/><text x="803.87" y="142.00" font-family="'Space Mono', 'Cascadia Mono', Consolas, monospace" font-size="14" fill="#6E7781" text-anchor="middle">Oct</text><line x1="1043.74" y1="210.00" x2="1043.74" y2="1140.00" stroke="#D7DCE2" stroke-width="1" stroke-dasharray="4 5"/><text x="1043.74" y="142.00" font-family="'Space Mono', 'Cascadia Mono', Consolas, monospace" font-size="14" fill="#6E7781" text-anchor="middle">Nov</text><line x1="1275.87" y1="210.00" x2="1275.87" y2="1140.00" stroke="#D7DCE2" stroke-width="1" stroke-dasharray="4 5"/><text x="1275.87" y="142.00" font-family="'Space Mono', 'Cascadia Mono', Consolas, monospace" font-size="14" fill="#6E7781" text-anchor="middle">Dec</text></g>
<g id="budget-phases"><rect x="92.00" y="154.00" width="1416.00" height="24.00" rx="10" fill="#F8F9FB" stroke="#1F2328" stroke-width="1.0"/><rect x="246.75" y="155.00" width="479.74" height="22.00" fill="#EEF2F5" stroke="none" stroke-width="0" opacity="0.72"/><text x="486.62" y="174.00" font-family="'IBM Plex Sans', 'Segoe UI', Arial, Helvetica, sans-serif" font-size="13" fill="#6E7781" text-anchor="middle">Budget phase 1</text><rect x="734.23" y="155.00" width="425.57" height="22.00" fill="#E9EDF2" stroke="none" stroke-width="0" opacity="0.72"/><text x="947.02" y="174.00" font-family="'IBM Plex Sans', 'Segoe UI', Arial, Helvetica, sans-serif" font-size="13" fill="#6E7781" text-anchor="middle">Budget phase 2</text><rect x="1167.54" y="155.00" width="340.46" height="22.00" fill="#EEF0F5" stroke="none" stroke-width="0" opacity="0.72"/><text x="1337.77" y="174.00" font-family="'IBM Plex Sans', 'Segoe UI', Arial, Helvetica, sans-serif" font-size="13" fill="#6E7781" text-anchor="middle">Budget phase 3</text></g>
<g id="availability"></g>
<g id="grid"><line x1="246.75" y1="178.00" x2="246.75" y2="1140.00" stroke="#C2C8D0" stroke-width="1" stroke-dasharray="4 5" opacity="0.8"/><line x1="726.49" y1="178.00" x2="726.49" y2="1140.00" stroke="#C2C8D0" stroke-width="1" stroke-dasharray="4 5" opacity="0.55"/><line x1="734.23" y1="178.00" x2="734.23" y2="1140.00" stroke="#C2C8D0" stroke-width="1" stroke-dasharray="4 5" opacity="0.8"/><line x1="1159.80" y1="178.00" x2="1159.80" y2="1140.00" stroke="#C2C8D0" stroke-width="1" stroke-dasharray="4 5" opacity="0.55"/><line x1="1167.54" y1="178.00" x2="1167.54" y2="1140.00" stroke="#C2C8D0" stroke-width="1" stroke-dasharray="4 5" opacity="0.8"/><line x1="1508.00" y1="178.00" x2="1508.00" y2="1140.00" stroke="#C2C8D0" stroke-width="1" stroke-dasharray="4 5" opacity="0.55"/><line x1="92.00" y1="210.00" x2="1508.00" y2="210.00" stroke="#D7DCE2" stroke-width="1"/><line x1="92.00" y1="342.86" x2="1508.00" y2="342.86" stroke="#D7DCE2" stroke-width="1"/><line x1="92.00" y1="475.71" x2="1508.00" y2="475.71" stroke="#D7DCE2" stroke-width="1"/><line x1="92.00" y1="608.57" x2="1508.00" y2="608.57" stroke="#D7DCE2" stroke-width="1"/><line x1="92.00" y1="741.43" x2="1508.00" y2="741.43" stroke="#D7DCE2" stroke-width="1"/><line x1="92.00" y1="874.29" x2="1508.00" y2="874.29" stroke="#D7DCE2" stroke-width="1"/><line x1="92.00" y1="1007.14" x2="1508.00" y2="1007.14" stroke="#D7DCE2" stroke-width="1"/><line x1="92.00" y1="1140.00" x2="1508.00" y2="1140.00" stroke="#D7DCE2" stroke-width="1"/></g>
<g id="lanes"><g id="lane-1"><text x="104.00" y="232.00" font-family="'IBM Plex Sans', 'Segoe UI', Arial, Helvetica, sans-serif" font-size="20" fill="#1F2328" font-weight="700">Screen</text><text x="104.00" y="248.00" font-family="'Space Mono', 'Cascadia Mono', Consolas, monospace" font-size="11" fill="#6E7781">plan</text><text x="104.00" y="278.00" font-family="'Space Mono', 'Cascadia Mono', Consolas, monospace" font-size="11" fill="#6E7781">actual</text><rect x="409.25" y="238.00" width="46.43" height="12.00" rx="4" fill="#7F8287" stroke="none" stroke-width="0" opacity="0.2"/><rect x="409.25" y="238.00" width="46.43" height="12.00" rx="4" fill="#7F8287" stroke="none" stroke-width="0" opacity="0.2"/><rect x="463.41" y="238.00" width="46.43" height="12.00" rx="4" fill="#7F8287" stroke="none" stroke-width="0" opacity="0.2"/><rect x="517.57" y="238.00" width="46.43" height="12.00" rx="4" fill="#7F8287" stroke="none" stroke-width="0" opacity="0.2"/><rect x="571.74" y="238.00" width="46.43" height="12.00" rx="4" fill="#7F8287" stroke="none" stroke-width="0" opacity="0.2"/><rect x="571.74" y="238.00" width="46.43" height="12.00" rx="4" fill="#7F8287" stroke="none" stroke-width="0" opacity="0.2"/><rect x="625.90" y="238.00" width="46.43" height="12.00" rx="4" fill="#7F8287" stroke="none" stroke-width="0" opacity="0.2"/><rect x="625.90" y="238.00" width="100.59" height="12.00" rx="4" fill="#7F8287" stroke="none" stroke-width="0" opacity="0.2"/><rect x="734.23" y="238.00" width="46.43" height="12.00" rx="4" fill="#7F8287" stroke="none" stroke-width="0" opacity="0.2"/><rect x="734.23" y="238.00" width="46.43" height="12.00" rx="4" fill="#7F8287" stroke="none" stroke-width="0" opacity="0.2"/><rect x="788.39" y="238.00" width="46.43" height="12.00" rx="4" fill="#7F8287" stroke="none" stroke-width="0" opacity="0.2"/><rect x="842.56" y="238.00" width="46.43" height="12.00" rx="4" fill="#7F8287" stroke="none" stroke-width="0" opacity="0.2"/><rect x="842.56" y="238.00" width="46.43" height="12.00" rx="4" fill="#7F8287" stroke="none" stroke-width="0" opacity="0.2"/><rect x="896.72" y="238.00" width="46.43" height="12.00" rx="4" fill="#7F8287" stroke="none" stroke-width="0" opacity="0.2"/><rect x="896.72" y="238.00" width="46.43" height="12.00" rx="4" fill="#7F8287" stroke="none" stroke-width="0" opacity="0.2"/><rect x="950.89" y="238.00" width="46.43" height="12.00" rx="4" fill="#7F8287" stroke="none" stroke-width="0" opacity="0.2"/><rect x="950.89" y="238.00" width="46.43" height="12.00" rx="4" fill="#7F8287" stroke="none" stroke-width="0" opacity="0.2"/><rect x="1005.05" y="238.00" width="46.43" height="12.00" rx="4" fill="#7F8287" stroke="none" stroke-width="0" opacity="0.2"/><rect x="950.89" y="238.00" width="46.43" height="12.00" rx="4" fill="#7F8287" stroke="none" stroke-width="0" opacity="0.2"/><rect x="1059.21" y="238.00" width="154.75" height="12.00" rx="4" fill="#7F8287" stroke="none" stroke-width="0" opacity="0.2"/><rect x="1221.70" y="238.00" width="46.43" height="12.00" rx="4" fill="#7F8287" stroke="none" stroke-width="0" opacity="0.2"/><rect x="1275.87" y="238.00" width="46.43" height="12.00" rx="4" fill="#7F8287" stroke="none" stroke-width="0" opacity="0.2"/><rect x="1384.20" y="238.00" width="46.43" height="12.00" rx="4" fill="#7F8287" stroke="none" stroke-width="0" opacity="0.2"/><rect x="92.00" y="268.00" width="324.98" height="12.00" rx="4" fill="#7F8287" stroke="none" stroke-width="0" opacity="0.78"/><rect x="409.25" y="268.00" width="23.21" height="12.00" rx="4" fill="#7F8287" stroke="none" stroke-width="0" opacity="0.1"/><rect x="533.05" y="268.00" width="38.69" height="12.00" rx="4" fill="#7F8287" stroke="none" stroke-width="0" opacity="0.1"/><rect x="571.74" y="268.00" width="46.43" height="12.00" rx="4" fill="#7F8287" stroke="none" stroke-width="0" opacity="0.78"/><rect x="610.43" y="268.00" width="23.21" height="12.00" rx="4" fill="#7F8287" stroke="none" stroke-width="0" opacity="0.1"/><rect x="649.11" y="268.00" width="77.38" height="12.00" rx="4" fill="#7F8287" stroke="none" stroke-width="0" opacity="0.1"/><rect x="734.23" y="268.00" width="30.95" height="12.00" rx="4" fill="#7F8287" stroke="none" stroke-width="0" opacity="0.1"/><rect x="772.92" y="268.00" width="69.64" height="12.00" rx="4" fill="#7F8287" stroke="none" stroke-width="0" opacity="0.1"/><rect x="834.82" y="268.00" width="46.43" height="12.00" rx="4" fill="#7F8287" stroke="none" stroke-width="0" opacity="0.1"/><rect x="834.82" y="268.00" width="61.90" height="12.00" rx="4" fill="#7F8287" stroke="none" stroke-width="0" opacity="0.1"/><rect x="950.89" y="268.00" width="46.43" height="12.00" rx="4" fill="#7F8287" stroke="none" stroke-width="0" opacity="0.78"/><rect x="1043.74" y="268.00" width="224.39" height="12.00" rx="4" fill="#7F8287" stroke="none" stroke-width="0" opacity="0.78"/><rect x="1275.87" y="268.00" width="23.21" height="12.00" rx="4" fill="#7F8287" stroke="none" stroke-width="0" opacity="0.78"/><rect x="656.85" y="268.00" width="8.00" height="12.00" rx="4" fill="#7F8287" stroke="none" stroke-width="0" opacity="0.78"/><rect x="757.44" y="268.00" width="464.26" height="12.00" rx="4" fill="#7F8287" stroke="none" stroke-width="0" opacity="0.78"/><rect x="873.51" y="268.00" width="8.00" height="12.00" rx="4" fill="#7F8287" stroke="none" stroke-width="0" opacity="0.78"/><rect x="919.93" y="268.00" width="15.48" height="12.00" rx="4" fill="#7F8287" stroke="none" stroke-width="0" opacity="0.78"/><rect x="1136.59" y="268.00" width="8.00" height="12.00" rx="4" fill="#7F8287" stroke="none" stroke-width="0" opacity="0.78"/><rect x="1213.97" y="268.00" width="23.21" height="12.00" rx="4" fill="#7F8287" stroke="none" stroke-width="0" opacity="0.78"/><circle cx="192.59" cy="302.00" r="3.80" fill="#7F8287" stroke="none" stroke-width="0" opacity="0.8"/><circle cx="200.33" cy="302.00" r="3.80" fill="#7F8287" stroke="none" stroke-width="0" opacity="0.8"/><circle cx="215.80" cy="302.00" r="3.80" fill="#7F8287" stroke="none" stroke-width="0" opacity="0.8"/><circle cx="231.28" cy="302.00" r="3.80" fill="#7F8287" stroke="none" stroke-width="0" opacity="0.8"/><text x="238.28" y="306.00" font-family="'Space Mono', 'Cascadia Mono', Consolas, monospace" font-size="10" fill="#6E7781">2</text><circle cx="239.02" cy="302.00" r="3.80" fill="#7F8287" stroke="none" stroke-width="0" opacity="0.8"/><circle cx="269.97" cy="302.00" r="3.80" fill="#7F8287" stroke="none" stroke-width="0" opacity="0.8"/><circle cx="285.44" cy="302.00" r="3.80" fill="#7F8287" stroke="none" stroke-width="0" opacity="0.8"/><circle cx="331.87" cy="302.00" r="3.80" fill="#7F8287" stroke="none" stroke-width="0" opacity="0.8"/><text x="338.87" y="306.00" font-family="'Space Mono', 'Cascadia Mono', Consolas, monospace" font-size="10" fill="#6E7781">2</text><circle cx="370.56" cy="302.00" r="3.80" fill="#7F8287" stroke="none" stroke-width="0" opacity="0.8"/><circle cx="416.98" cy="302.00" r="3.80" fill="#7F8287" stroke="none" stroke-width="0" opacity="0.8"/><circle cx="424.72" cy="302.00" r="3.80" fill="#7F8287" stroke="none" stroke-width="0" opacity="0.8"/><circle cx="463.41" cy="302.00" r="3.80" fill="#7F8287" stroke="none" stroke-width="0" opacity="0.8"/><circle cx="478.89" cy="302.00" r="3.80" fill="#7F8287" stroke="none" stroke-width="0" opacity="0.8"/><circle cx="509.84" cy="302.00" r="3.80" fill="#7F8287" stroke="none" stroke-width="0" opacity="0.8"/><text x="516.84" y="306.00" font-family="'Space Mono', 'Cascadia Mono', Consolas, monospace" font-size="10" fill="#6E7781">2</text><circle cx="533.05" cy="302.00" r="3.80" fill="#7F8287" stroke="none" stroke-width="0" opacity="0.8"/><circle cx="695.54" cy="302.00" r="3.80" fill="#7F8287" stroke="none" stroke-width="0" opacity="0.8"/><circle cx="711.02" cy="302.00" r="3.80" fill="#7F8287" stroke="none" stroke-width="0" opacity="0.8"/><circle cx="757.44" cy="302.00" r="3.80" fill="#7F8287" stroke="none" stroke-width="0" opacity="0.8"/><circle cx="772.92" cy="302.00" r="3.80" fill="#7F8287" stroke="none" stroke-width="0" opacity="0.8"/><circle cx="796.13" cy="302.00" r="3.80" fill="#7F8287" stroke="none" stroke-width="0" opacity="0.8"/><circle cx="827.08" cy="302.00" r="3.80" fill="#7F8287" stroke="none" stroke-width="0" opacity="0.8"/><circle cx="974.10" cy="302.00" r="3.80" fill="#7F8287" stroke="none" stroke-width="0" opacity="0.8"/><circle cx="989.57" cy="302.00" r="3.80" fill="#7F8287" stroke="none" stroke-width="0" opacity="0.8"/><circle cx="1005.05" cy="302.00" r="3.80" fill="#7F8287" stroke="none" stroke-width="0" opacity="0.8"/><circle cx="1020.52" cy="302.00" r="3.80" fill="#7F8287" stroke="none" stroke-width="0" opacity="0.8"/><circle cx="1036.00" cy="302.00" r="3.80" fill="#7F8287" stroke="none" stroke-width="0" opacity="0.8"/><text x="1043.00" y="306.00" font-family="'Space Mono', 'Cascadia Mono', Consolas, monospace" font-size="10" fill="#6E7781">2</text><circle cx="1043.74" cy="302.00" r="3.80" fill="#7F8287" stroke="none" stroke-width="0" opacity="0.8"/><circle cx="1090.16" cy="302.00" r="3.80" fill="#7F8287" stroke="none" stroke-width="0" opacity="0.8"/><circle cx="1105.64" cy="302.00" r="3.80" fill="#7F8287" stroke="none" stroke-width="0" opacity="0.8"/><circle cx="1144.33" cy="302.00" r="3.80" fill="#7F8287" stroke="none" stroke-width="0" opacity="0.8"/><circle cx="1175.28" cy="302.00" r="3.80" fill="#7F8287" stroke="none" stroke-width="0" opacity="0.8"/><circle cx="1183.02" cy="302.00" r="3.80" fill="#7F8287" stroke="none" stroke-width="0" opacity="0.8"/><circle cx="1198.49" cy="302.00" r="3.80" fill="#7F8287" stroke="none" stroke-width="0" opacity="0.8"/><circle cx="1237.18" cy="302.00" r="3.80" fill="#7F8287" stroke="none" stroke-width="0" opacity="0.8"/><circle cx="1283.61" cy="302.00" r="3.80" fill="#7F8287" stroke="none" stroke-width="0" opacity="0.8"/><circle cx="1291.34" cy="302.00" r="3.80" fill="#7F8287" stroke="none" stroke-width="0" opacity="0.8"/><circle cx="1299.08" cy="302.00" r="3.80" fill="#7F8287" stroke="none" stroke-width="0" opacity="0.8"/><circle cx="1330.03" cy="302.00" r="3.80" fill="#7F8287" stroke="none" stroke-width="0" opacity="0.8"/></g><g id="lane-2"><text x="104.00" y="364.86" font-family="'IBM Plex Sans', 'Segoe UI', Arial, Helvetica, sans-serif" font-size="20" fill="#1F2328" font-weight="700">Tech / Logistics</text><text x="104.00" y="380.86" font-family="'Space Mono', 'Cascadia Mono', Consolas, monospace" font-size="11" fill="#6E7781">plan</text><text x="104.00" y="410.86" font-family="'Space Mono', 'Cascadia Mono', Consolas, monospace" font-size="11" fill="#6E7781">actual</text><rect x="409.25" y="370.86" width="46.43" height="12.00" rx="4" fill="#C86E5A" stroke="none" stroke-width="0" opacity="0.2"/><rect x="517.57" y="370.86" width="46.43" height="12.00" rx="4" fill="#C86E5A" stroke="none" stroke-width="0" opacity="0.2"/><rect x="564.00" y="370.86" width="8.00" height="12.00" rx="4" fill="#C86E5A" stroke="none" stroke-width="0" opacity="0.2"/><rect x="625.90" y="370.86" width="46.43" height="12.00" rx="4" fill="#C86E5A" stroke="none" stroke-width="0" opacity="0.2"/><rect x="703.28" y="370.86" width="23.21" height="12.00" rx="4" fill="#C86E5A" stroke="none" stroke-width="0" opacity="0.2"/><rect x="734.23" y="370.86" width="46.43" height="12.00" rx="4" fill="#C86E5A" stroke="none" stroke-width="0" opacity="0.2"/><rect x="734.23" y="370.86" width="154.75" height="12.00" rx="4" fill="#C86E5A" stroke="none" stroke-width="0" opacity="0.2"/><rect x="842.56" y="370.86" width="100.59" height="12.00" rx="4" fill="#C86E5A" stroke="none" stroke-width="0" opacity="0.2"/><rect x="896.72" y="370.86" width="46.43" height="12.00" rx="4" fill="#C86E5A" stroke="none" stroke-width="0" opacity="0.2"/><rect x="950.89" y="370.86" width="46.43" height="12.00" rx="4" fill="#C86E5A" stroke="none" stroke-width="0" opacity="0.2"/><rect x="950.89" y="370.86" width="46.43" height="12.00" rx="4" fill="#C86E5A" stroke="none" stroke-width="0" opacity="0.2"/><rect x="1167.54" y="370.86" width="46.43" height="12.00" rx="4" fill="#C86E5A" stroke="none" stroke-width="0" opacity="0.2"/><rect x="1275.87" y="370.86" width="46.43" height="12.00" rx="4" fill="#C86E5A" stroke="none" stroke-width="0" opacity="0.2"/><rect x="594.95" y="400.86" width="108.33" height="12.00" rx="4" fill="#C86E5A" stroke="none" stroke-width="0" opacity="0.78"/><rect x="533.05" y="400.86" width="38.69" height="12.00" rx="4" fill="#C86E5A" stroke="none" stroke-width="0" opacity="0.78"/><rect x="625.90" y="400.86" width="30.95" height="12.00" rx="4" fill="#C86E5A" stroke="none" stroke-width="0" opacity="0.78"/><rect x="950.89" y="400.86" width="30.95" height="12.00" rx="4" fill="#C86E5A" stroke="none" stroke-width="0" opacity="0.78"/><rect x="1175.28" y="400.86" width="30.95" height="12.00" rx="4" fill="#C86E5A" stroke="none" stroke-width="0" opacity="0.78"/><rect x="1275.87" y="400.86" width="23.21" height="12.00" rx="4" fill="#C86E5A" stroke="none" stroke-width="0" opacity="0.78"/><circle cx="92.00" cy="434.86" r="3.80" fill="#C86E5A" stroke="none" stroke-width="0" opacity="0.8"/></g><g id="lane-3"><text x="104.00" y="497.71" font-family="'IBM Plex Sans', 'Segoe UI', Arial, Helvetica, sans-serif" font-size="20" fill="#1F2328" font-weight="700">Interfaces</text><text x="104.00" y="513.71" font-family="'Space Mono', 'Cascadia Mono', Consolas, monospace" font-size="11" fill="#6E7781">plan</text><text x="104.00" y="543.71" font-family="'Space Mono', 'Cascadia Mono', Consolas, monospace" font-size="11" fill="#6E7781">actual</text><rect x="409.25" y="503.71" width="46.43" height="12.00" rx="4" fill="#D48B4A" stroke="none" stroke-width="0" opacity="0.2"/><rect x="463.41" y="503.71" width="46.43" height="12.00" rx="4" fill="#D48B4A" stroke="none" stroke-width="0" opacity="0.2"/><rect x="517.57" y="503.71" width="46.43" height="12.00" rx="4" fill="#D48B4A" stroke="none" stroke-width="0" opacity="0.2"/><rect x="571.74" y="503.71" width="46.43" height="12.00" rx="4" fill="#D48B4A" stroke="none" stroke-width="0" opacity="0.2"/><rect x="571.74" y="503.71" width="46.43" height="12.00" rx="4" fill="#D48B4A" stroke="none" stroke-width="0" opacity="0.2"/><rect x="625.90" y="503.71" width="46.43" height="12.00" rx="4" fill="#D48B4A" stroke="none" stroke-width="0" opacity="0.2"/><rect x="625.90" y="503.71" width="46.43" height="12.00" rx="4" fill="#D48B4A" stroke="none" stroke-width="0" opacity="0.2"/><rect x="734.23" y="503.71" width="46.43" height="12.00" rx="4" fill="#D48B4A" stroke="none" stroke-width="0" opacity="0.2"/><rect x="842.56" y="503.71" width="46.43" height="12.00" rx="4" fill="#D48B4A" stroke="none" stroke-width="0" opacity="0.2"/><rect x="842.56" y="503.71" width="46.43" height="12.00" rx="4" fill="#D48B4A" stroke="none" stroke-width="0" opacity="0.2"/><rect x="896.72" y="503.71" width="46.43" height="12.00" rx="4" fill="#D48B4A" stroke="none" stroke-width="0" opacity="0.2"/><rect x="950.89" y="503.71" width="46.43" height="12.00" rx="4" fill="#D48B4A" stroke="none" stroke-width="0" opacity="0.2"/><rect x="950.89" y="503.71" width="46.43" height="12.00" rx="4" fill="#D48B4A" stroke="none" stroke-width="0" opacity="0.2"/><rect x="1005.05" y="503.71" width="46.43" height="12.00" rx="4" fill="#D48B4A" stroke="none" stroke-width="0" opacity="0.2"/><rect x="1221.70" y="503.71" width="46.43" height="12.00" rx="4" fill="#D48B4A" stroke="none" stroke-width="0" opacity="0.2"/><rect x="409.25" y="533.71" width="30.95" height="12.00" rx="4" fill="#D48B4A" stroke="none" stroke-width="0" opacity="0.1"/><rect x="517.57" y="533.71" width="15.48" height="12.00" rx="4" fill="#D48B4A" stroke="none" stroke-width="0" opacity="0.78"/><rect x="540.79" y="533.71" width="23.21" height="12.00" rx="4" fill="#D48B4A" stroke="none" stroke-width="0" opacity="0.78"/><rect x="579.48" y="533.71" width="30.95" height="12.00" rx="4" fill="#D48B4A" stroke="none" stroke-width="0" opacity="0.1"/><rect x="571.74" y="533.71" width="46.43" height="12.00" rx="4" fill="#D48B4A" stroke="none" stroke-width="0" opacity="0.1"/><rect x="625.90" y="533.71" width="54.16" height="12.00" rx="4" fill="#D48B4A" stroke="none" stroke-width="0" opacity="0.78"/><rect x="625.90" y="533.71" width="46.43" height="12.00" rx="4" fill="#D48B4A" stroke="none" stroke-width="0" opacity="0.78"/><rect x="734.23" y="533.71" width="46.43" height="12.00" rx="4" fill="#D48B4A" stroke="none" stroke-width="0" opacity="0.78"/><rect x="796.13" y="533.71" width="54.16" height="12.00" rx="4" fill="#D48B4A" stroke="none" stroke-width="0" opacity="0.78"/><rect x="842.56" y="533.71" width="46.43" height="12.00" rx="4" fill="#D48B4A" stroke="none" stroke-width="0" opacity="0.78"/><rect x="888.98" y="533.71" width="23.21" height="12.00" rx="4" fill="#D48B4A" stroke="none" stroke-width="0" opacity="0.1"/><rect x="950.89" y="533.71" width="46.43" height="12.00" rx="4" fill="#D48B4A" stroke="none" stroke-width="0" opacity="0.78"/><rect x="1059.21" y="533.71" width="46.43" height="12.00" rx="4" fill="#D48B4A" stroke="none" stroke-width="0" opacity="0.78"/><rect x="1213.97" y="533.71" width="23.21" height="12.00" rx="4" fill="#D48B4A" stroke="none" stroke-width="0" opacity="0.78"/><rect x="1213.97" y="533.71" width="23.21" height="12.00" rx="4" fill="#D48B4A" stroke="none" stroke-width="0" opacity="0.78"/><circle cx="1221.70" cy="567.71" r="3.80" fill="#D48B4A" stroke="none" stroke-width="0" opacity="0.8"/><circle cx="1229.44" cy="567.71" r="3.80" fill="#D48B4A" stroke="none" stroke-width="0" opacity="0.8"/></g><g id="lane-4"><text x="104.00" y="630.57" font-family="'IBM Plex Sans', 'Segoe UI', Arial, Helvetica, sans-serif" font-size="20" fill="#1F2328" font-weight="700">Visual</text><text x="104.00" y="646.57" font-family="'Space Mono', 'Cascadia Mono', Consolas, monospace" font-size="11" fill="#6E7781">plan</text><text x="104.00" y="676.57" font-family="'Space Mono', 'Cascadia Mono', Consolas, monospace" font-size="11" fill="#6E7781">actual</text><rect x="463.41" y="636.57" width="100.59" height="12.00" rx="4" fill="#A16DA8" stroke="none" stroke-width="0" opacity="0.2"/><rect x="517.57" y="636.57" width="100.59" height="12.00" rx="4" fill="#A16DA8" stroke="none" stroke-width="0" opacity="0.2"/><rect x="625.90" y="636.57" width="100.59" height="12.00" rx="4" fill="#A16DA8" stroke="none" stroke-width="0" opacity="0.2"/><rect x="571.74" y="636.57" width="46.43" height="12.00" rx="4" fill="#A16DA8" stroke="none" stroke-width="0" opacity="0.2"/><rect x="680.07" y="636.57" width="100.59" height="12.00" rx="4" fill="#A16DA8" stroke="none" stroke-width="0" opacity="0.2"/><rect x="842.56" y="636.57" width="100.59" height="12.00" rx="4" fill="#A16DA8" stroke="none" stroke-width="0" opacity="0.2"/><rect x="1005.05" y="636.57" width="208.92" height="12.00" rx="4" fill="#A16DA8" stroke="none" stroke-width="0" opacity="0.2"/><rect x="478.89" y="666.57" width="46.43" height="12.00" rx="4" fill="#A16DA8" stroke="none" stroke-width="0" opacity="0.78"/><rect x="571.74" y="666.57" width="46.43" height="12.00" rx="4" fill="#A16DA8" stroke="none" stroke-width="0" opacity="0.78"/><rect x="625.90" y="666.57" width="46.43" height="12.00" rx="4" fill="#A16DA8" stroke="none" stroke-width="0" opacity="0.78"/><rect x="680.07" y="666.57" width="100.59" height="12.00" rx="4" fill="#A16DA8" stroke="none" stroke-width="0" opacity="0.1"/><rect x="842.56" y="666.57" width="100.59" height="12.00" rx="4" fill="#A16DA8" stroke="none" stroke-width="0" opacity="0.1"/><rect x="1005.05" y="666.57" width="208.92" height="12.00" rx="4" fill="#A16DA8" stroke="none" stroke-width="0" opacity="0.78"/><rect x="1121.11" y="666.57" width="8.00" height="12.00" rx="4" fill="#A16DA8" stroke="none" stroke-width="0" opacity="0.78"/></g><g id="lane-5"><text x="104.00" y="763.43" font-family="'IBM Plex Sans', 'Segoe UI', Arial, Helvetica, sans-serif" font-size="20" fill="#1F2328" font-weight="700">Composition / Sound</text><text x="104.00" y="779.43" font-family="'Space Mono', 'Cascadia Mono', Consolas, monospace" font-size="11" fill="#6E7781">plan</text><text x="104.00" y="809.43" font-family="'Space Mono', 'Cascadia Mono', Consolas, monospace" font-size="11" fill="#6E7781">actual</text><rect x="409.25" y="769.43" width="46.43" height="12.00" rx="4" fill="#6A8FBF" stroke="none" stroke-width="0" opacity="0.2"/><rect x="517.57" y="769.43" width="100.59" height="12.00" rx="4" fill="#6A8FBF" stroke="none" stroke-width="0" opacity="0.2"/><rect x="842.56" y="769.43" width="100.59" height="12.00" rx="4" fill="#6A8FBF" stroke="none" stroke-width="0" opacity="0.2"/><rect x="517.57" y="769.43" width="46.43" height="12.00" rx="4" fill="#6A8FBF" stroke="none" stroke-width="0" opacity="0.2"/><rect x="625.90" y="769.43" width="46.43" height="12.00" rx="4" fill="#6A8FBF" stroke="none" stroke-width="0" opacity="0.2"/><rect x="788.39" y="769.43" width="154.75" height="12.00" rx="4" fill="#6A8FBF" stroke="none" stroke-width="0" opacity="0.2"/><rect x="409.25" y="799.43" width="15.48" height="12.00" rx="4" fill="#6A8FBF" stroke="none" stroke-width="0" opacity="0.78"/><rect x="533.05" y="799.43" width="85.11" height="12.00" rx="4" fill="#6A8FBF" stroke="none" stroke-width="0" opacity="0.78"/><rect x="834.82" y="799.43" width="108.33" height="12.00" rx="4" fill="#6A8FBF" stroke="none" stroke-width="0" opacity="0.78"/><rect x="540.79" y="799.43" width="30.95" height="12.00" rx="4" fill="#6A8FBF" stroke="none" stroke-width="0" opacity="0.78"/><rect x="625.90" y="799.43" width="46.43" height="12.00" rx="4" fill="#6A8FBF" stroke="none" stroke-width="0" opacity="0.78"/><rect x="788.39" y="799.43" width="162.49" height="12.00" rx="4" fill="#6A8FBF" stroke="none" stroke-width="0" opacity="0.78"/><circle cx="1113.38" cy="833.43" r="3.80" fill="#6A8FBF" stroke="none" stroke-width="0" opacity="0.8"/><circle cx="1190.75" cy="833.43" r="3.80" fill="#6A8FBF" stroke="none" stroke-width="0" opacity="0.8"/><circle cx="1237.18" cy="833.43" r="3.80" fill="#6A8FBF" stroke="none" stroke-width="0" opacity="0.8"/><circle cx="1275.87" cy="833.43" r="3.80" fill="#6A8FBF" stroke="none" stroke-width="0" opacity="0.8"/><text x="1282.87" y="837.43" font-family="'Space Mono', 'Cascadia Mono', Consolas, monospace" font-size="10" fill="#6E7781">2</text></g><g id="lane-6"><text x="104.00" y="896.29" font-family="'IBM Plex Sans', 'Segoe UI', Arial, Helvetica, sans-serif" font-size="20" fill="#1F2328" font-weight="700">Communication / Doc</text><text x="104.00" y="912.29" font-family="'Space Mono', 'Cascadia Mono', Consolas, monospace" font-size="11" fill="#6E7781">plan</text><text x="104.00" y="942.29" font-family="'Space Mono', 'Cascadia Mono', Consolas, monospace" font-size="11" fill="#6E7781">actual</text><rect x="300.92" y="902.29" width="46.43" height="12.00" rx="4" fill="#5E8D7A" stroke="none" stroke-width="0" opacity="0.2"/><rect x="355.08" y="902.29" width="46.43" height="12.00" rx="4" fill="#5E8D7A" stroke="none" stroke-width="0" opacity="0.2"/><rect x="409.25" y="902.29" width="46.43" height="12.00" rx="4" fill="#5E8D7A" stroke="none" stroke-width="0" opacity="0.2"/><rect x="571.74" y="902.29" width="46.43" height="12.00" rx="4" fill="#5E8D7A" stroke="none" stroke-width="0" opacity="0.2"/><rect x="625.90" y="902.29" width="46.43" height="12.00" rx="4" fill="#5E8D7A" stroke="none" stroke-width="0" opacity="0.2"/><rect x="734.23" y="902.29" width="46.43" height="12.00" rx="4" fill="#5E8D7A" stroke="none" stroke-width="0" opacity="0.2"/><rect x="1005.05" y="902.29" width="100.59" height="12.00" rx="4" fill="#5E8D7A" stroke="none" stroke-width="0" opacity="0.2"/><rect x="1113.38" y="902.29" width="46.43" height="12.00" rx="4" fill="#5E8D7A" stroke="none" stroke-width="0" opacity="0.2"/><rect x="1384.20" y="902.29" width="100.59" height="12.00" rx="4" fill="#5E8D7A" stroke="none" stroke-width="0" opacity="0.2"/><rect x="1330.03" y="902.29" width="100.59" height="12.00" rx="4" fill="#5E8D7A" stroke="none" stroke-width="0" opacity="0.2"/><rect x="355.08" y="902.29" width="46.43" height="12.00" rx="4" fill="#5E8D7A" stroke="none" stroke-width="0" opacity="0.2"/><rect x="409.25" y="902.29" width="46.43" height="12.00" rx="4" fill="#5E8D7A" stroke="none" stroke-width="0" opacity="0.2"/><rect x="409.25" y="902.29" width="46.43" height="12.00" rx="4" fill="#5E8D7A" stroke="none" stroke-width="0" opacity="0.2"/><rect x="517.57" y="902.29" width="46.43" height="12.00" rx="4" fill="#5E8D7A" stroke="none" stroke-width="0" opacity="0.2"/><rect x="571.74" y="902.29" width="46.43" height="12.00" rx="4" fill="#5E8D7A" stroke="none" stroke-width="0" opacity="0.2"/><rect x="625.90" y="902.29" width="100.59" height="12.00" rx="4" fill="#5E8D7A" stroke="none" stroke-width="0" opacity="0.2"/><rect x="734.23" y="902.29" width="8.00" height="12.00" rx="4" fill="#5E8D7A" stroke="none" stroke-width="0" opacity="0.2"/><rect x="734.23" y="902.29" width="46.43" height="12.00" rx="4" fill="#5E8D7A" stroke="none" stroke-width="0" opacity="0.2"/><rect x="625.90" y="902.29" width="154.75" height="12.00" rx="4" fill="#5E8D7A" stroke="none" stroke-width="0" opacity="0.2"/><rect x="842.56" y="902.29" width="100.59" height="12.00" rx="4" fill="#5E8D7A" stroke="none" stroke-width="0" opacity="0.2"/><rect x="950.89" y="902.29" width="46.43" height="12.00" rx="4" fill="#5E8D7A" stroke="none" stroke-width="0" opacity="0.2"/><rect x="950.89" y="902.29" width="46.43" height="12.00" rx="4" fill="#5E8D7A" stroke="none" stroke-width="0" opacity="0.2"/><rect x="1005.05" y="902.29" width="46.43" height="12.00" rx="4" fill="#5E8D7A" stroke="none" stroke-width="0" opacity="0.2"/><rect x="1005.05" y="902.29" width="100.59" height="12.00" rx="4" fill="#5E8D7A" stroke="none" stroke-width="0" opacity="0.2"/><rect x="1059.21" y="902.29" width="46.43" height="12.00" rx="4" fill="#5E8D7A" stroke="none" stroke-width="0" opacity="0.2"/><rect x="1113.38" y="902.29" width="46.43" height="12.00" rx="4" fill="#5E8D7A" stroke="none" stroke-width="0" opacity="0.2"/><rect x="1167.54" y="902.29" width="46.43" height="12.00" rx="4" fill="#5E8D7A" stroke="none" stroke-width="0" opacity="0.2"/><rect x="1221.70" y="902.29" width="46.43" height="12.00" rx="4" fill="#5E8D7A" stroke="none" stroke-width="0" opacity="0.2"/><rect x="1113.38" y="902.29" width="263.08" height="12.00" rx="4" fill="#5E8D7A" stroke="none" stroke-width="0" opacity="0.2"/><rect x="1221.70" y="902.29" width="46.43" height="12.00" rx="4" fill="#5E8D7A" stroke="none" stroke-width="0" opacity="0.2"/><rect x="1330.03" y="902.29" width="46.43" height="12.00" rx="4" fill="#5E8D7A" stroke="none" stroke-width="0" opacity="0.2"/><rect x="1330.03" y="902.29" width="46.43" height="12.00" rx="4" fill="#5E8D7A" stroke="none" stroke-width="0" opacity="0.2"/><rect x="246.75" y="932.29" width="479.74" height="12.00" rx="4" fill="#5E8D7A" stroke="none" stroke-width="0" opacity="0.78"/><rect x="734.23" y="932.29" width="425.57" height="12.00" rx="4" fill="#5E8D7A" stroke="none" stroke-width="0" opacity="0.78"/><rect x="1167.54" y="932.29" width="340.46" height="12.00" rx="4" fill="#5E8D7A" stroke="none" stroke-width="0" opacity="0.78"/><rect x="370.56" y="932.29" width="30.95" height="12.00" rx="4" fill="#5E8D7A" stroke="none" stroke-width="0" opacity="0.78"/><rect x="401.51" y="932.29" width="23.21" height="12.00" rx="4" fill="#5E8D7A" stroke="none" stroke-width="0" opacity="0.1"/><rect x="571.74" y="932.29" width="46.43" height="12.00" rx="4" fill="#5E8D7A" stroke="none" stroke-width="0" opacity="0.1"/><rect x="625.90" y="932.29" width="46.43" height="12.00" rx="4" fill="#5E8D7A" stroke="none" stroke-width="0" opacity="0.1"/><rect x="1005.05" y="932.29" width="46.43" height="12.00" rx="4" fill="#5E8D7A" stroke="none" stroke-width="0" opacity="0.78"/><rect x="1368.72" y="932.29" width="30.95" height="12.00" rx="4" fill="#5E8D7A" stroke="none" stroke-width="0" opacity="0.78"/><circle cx="130.69" cy="966.29" r="3.80" fill="#5E8D7A" stroke="none" stroke-width="0" opacity="0.8"/><circle cx="161.64" cy="966.29" r="3.80" fill="#5E8D7A" stroke="none" stroke-width="0" opacity="0.8"/><circle cx="300.92" cy="966.29" r="3.80" fill="#5E8D7A" stroke="none" stroke-width="0" opacity="0.8"/><circle cx="610.43" cy="966.29" r="3.80" fill="#5E8D7A" stroke="none" stroke-width="0" opacity="0.8"/><circle cx="649.11" cy="966.29" r="3.80" fill="#5E8D7A" stroke="none" stroke-width="0" opacity="0.8"/><circle cx="656.85" cy="966.29" r="3.80" fill="#5E8D7A" stroke="none" stroke-width="0" opacity="0.8"/><circle cx="741.97" cy="966.29" r="3.80" fill="#5E8D7A" stroke="none" stroke-width="0" opacity="0.8"/><circle cx="772.92" cy="966.29" r="3.80" fill="#5E8D7A" stroke="none" stroke-width="0" opacity="0.8"/><circle cx="803.87" cy="966.29" r="3.80" fill="#5E8D7A" stroke="none" stroke-width="0" opacity="0.8"/><circle cx="834.82" cy="966.29" r="3.80" fill="#5E8D7A" stroke="none" stroke-width="0" opacity="0.8"/><circle cx="865.77" cy="966.29" r="3.80" fill="#5E8D7A" stroke="none" stroke-width="0" opacity="0.8"/><circle cx="1005.05" cy="966.29" r="3.80" fill="#5E8D7A" stroke="none" stroke-width="0" opacity="0.8"/><circle cx="1036.00" cy="966.29" r="3.80" fill="#5E8D7A" stroke="none" stroke-width="0" opacity="0.8"/><circle cx="1090.16" cy="966.29" r="3.80" fill="#5E8D7A" stroke="none" stroke-width="0" opacity="0.8"/><circle cx="1105.64" cy="966.29" r="3.80" fill="#5E8D7A" stroke="none" stroke-width="0" opacity="0.8"/><circle cx="1113.38" cy="966.29" r="3.80" fill="#5E8D7A" stroke="none" stroke-width="0" opacity="0.8"/><circle cx="1159.80" cy="966.29" r="3.80" fill="#5E8D7A" stroke="none" stroke-width="0" opacity="0.8"/><circle cx="1213.97" cy="966.29" r="3.80" fill="#5E8D7A" stroke="none" stroke-width="0" opacity="0.8"/><circle cx="1237.18" cy="966.29" r="3.80" fill="#5E8D7A" stroke="none" stroke-width="0" opacity="0.8"/><circle cx="1268.13" cy="966.29" r="3.80" fill="#5E8D7A" stroke="none" stroke-width="0" opacity="0.8"/><circle cx="1299.08" cy="966.29" r="3.80" fill="#5E8D7A" stroke="none" stroke-width="0" opacity="0.8"/><circle cx="1306.82" cy="966.29" r="3.80" fill="#5E8D7A" stroke="none" stroke-width="0" opacity="0.8"/><circle cx="1322.30" cy="966.29" r="3.80" fill="#5E8D7A" stroke="none" stroke-width="0" opacity="0.8"/><text x="1329.30" y="970.29" font-family="'Space Mono', 'Cascadia Mono', Consolas, monospace" font-size="10" fill="#6E7781">2</text></g><g id="lane-7"><text x="104.00" y="1029.14" font-family="'IBM Plex Sans', 'Segoe UI', Arial, Helvetica, sans-serif" font-size="20" fill="#1F2328" font-weight="700">Rehearsal / Performance</text><text x="104.00" y="1045.14" font-family="'Space Mono', 'Cascadia Mono', Consolas, monospace" font-size="11" fill="#6E7781">plan</text><text x="104.00" y="1075.14" font-family="'Space Mono', 'Cascadia Mono', Consolas, monospace" font-size="11" fill="#6E7781">actual</text><rect x="1113.38" y="1035.14" width="154.75" height="12.00" rx="4" fill="#B8806A" stroke="none" stroke-width="0" opacity="0.2"/><rect x="1275.87" y="1035.14" width="46.43" height="12.00" rx="4" fill="#B8806A" stroke="none" stroke-width="0" opacity="0.2"/><rect x="1330.03" y="1035.14" width="46.43" height="12.00" rx="4" fill="#B8806A" stroke="none" stroke-width="0" opacity="0.2"/><rect x="625.90" y="1065.14" width="46.43" height="12.00" rx="4" fill="#B8806A" stroke="none" stroke-width="0" opacity="0.78"/><rect x="950.89" y="1065.14" width="46.43" height="12.00" rx="4" fill="#B8806A" stroke="none" stroke-width="0" opacity="0.78"/><rect x="1275.87" y="1065.14" width="23.21" height="12.00" rx="4" fill="#B8806A" stroke="none" stroke-width="0" opacity="0.78"/><rect x="1306.82" y="1065.14" width="8.00" height="12.00" rx="4" fill="#B8806A" stroke="none" stroke-width="0" opacity="0.78"/><circle cx="1314.56" cy="1099.14" r="3.80" fill="#B8806A" stroke="none" stroke-width="0" opacity="0.8"/></g></g>
<g id="legend"><text x="108.00" y="1194.00" font-family="'IBM Plex Sans', 'Segoe UI', Arial, Helvetica, sans-serif" font-size="19" fill="#1F2328" font-weight="700">Reading Guide</text><text x="108.00" y="1218.00" font-family="'IBM Plex Sans', 'Segoe UI', Arial, Helvetica, sans-serif" font-size="15" fill="#6E7781"><tspan x="108.00" dy="0">Light bars show planned work blocks. Darker bars show realized work. Dots summarize actual day-events. Vertical pale bands</tspan><tspan x="108.00" dy="18">mark reduced availability. Dashed guides trace budget phase boundaries down through the plot.</tspan></text><rect x="110.00" y="1276.00" width="22.00" height="12.00" rx="3" fill="#5E8D7A" stroke="none" stroke-width="0" opacity="0.2"/><text x="140.00" y="1286.00" font-family="'IBM Plex Sans', 'Segoe UI', Arial, Helvetica, sans-serif" font-size="13" fill="#1F2328">planned</text><rect x="230.00" y="1276.00" width="22.00" height="12.00" rx="3" fill="#5E8D7A" stroke="none" stroke-width="0" opacity="0.78"/><text x="260.00" y="1286.00" font-family="'IBM Plex Sans', 'Segoe UI', Arial, Helvetica, sans-serif" font-size="13" fill="#1F2328">realized</text><circle cx="364.00" cy="1282.00" r="4.00" fill="#5E8D7A" stroke="none" stroke-width="0" opacity="0.8"/><text x="376.00" y="1286.00" font-family="'IBM Plex Sans', 'Segoe UI', Arial, Helvetica, sans-serif" font-size="13" fill="#1F2328">actual day-event</text><text x="1072.00" y="1266.00" font-family="'IBM Plex Sans', 'Segoe UI', Arial, Helvetica, sans-serif" font-size="13" fill="#6E7781"><tspan x="1072.00" dy="0">Based on retrospective reconstruction from the</tspan><tspan x="1072.00" dy="16">original project schedule, annotated timeline,</tspan><tspan x="1072.00" dy="16">chat records, and project documentation.</tspan></text></g>
</svg>