<svg xmlns="http://www.w3.org/2000/svg" width="1600" height="1080" viewBox="0 0 1600 1080">
<rect width="1600" height="1080" fill="#FFFFFF"/>
<text x="92.00" y="62.00" font-family="'IBM Plex Sans', 'Segoe UI', Arial, Helvetica, sans-serif" font-size="42" fill="#1F2328" font-weight="700">Allocate: Weekly Expenses</text>
<text x="92.00" y="95.00" font-family="'IBM Plex Sans', 'Segoe UI', Arial, Helvetica, sans-serif" font-size="21" fill="#6E7781">Weekly project spending by type. Budget phases are shown as broad background bands rather than a cumulative total.</text>
<line x1="92.00" y1="114.00" x2="1510.00" y2="114.00" stroke="#8D3B32" stroke-width="1.8"/>
<rect x="92.00" y="220.00" width="1416.00" height="620.00" rx="12" fill="#F8F9FB" stroke="#1F2328" stroke-width="1.1"/>
<rect x="92.00" y="868.00" width="1416.00" height="126.00" rx="12" fill="#F8F9FB" stroke="#1F2328" stroke-width="1.0"/>
<rect x="92.00" y="221.00" width="404.57" height="618.00" fill="#EEF2F5" stroke="none" stroke-width="0" opacity="0.6"/>
<text x="294.29" y="242.00" font-family="'IBM Plex Sans', 'Segoe UI', Arial, Helvetica, sans-serif" font-size="13" fill="#6E7781" text-anchor="middle">phase 1</text>
<rect x="506.69" y="221.00" width="556.29" height="618.00" fill="#E9EDF2" stroke="none" stroke-width="0" opacity="0.6"/>
<text x="784.83" y="242.00" font-family="'IBM Plex Sans', 'Segoe UI', Arial, Helvetica, sans-serif" font-size="13" fill="#6E7781" text-anchor="middle">phase 2</text>
<rect x="1073.09" y="221.00" width="434.91" height="618.00" fill="#EEF0F5" stroke="none" stroke-width="0" opacity="0.6"/>
<text x="1290.54" y="242.00" font-family="'IBM Plex Sans', 'Segoe UI', Arial, Helvetica, sans-serif" font-size="13" fill="#6E7781" text-anchor="middle">phase 3</text>
<line x1="92.00" y1="220.00" x2="92.00" y2="840.00" stroke="#D7DCE2" stroke-width="1" stroke-dasharray="4 5"/>
<text x="92.00" y="206.00" font-family="'Space Mono', 'Cascadia Mono', Consolas, monospace" font-size="14" fill="#6E7781" text-anchor="middle">Aug</text>
<line x1="294.29" y1="220.00" x2="294.29" y2="840.00" stroke="#D7DCE2" stroke-width="1" stroke-dasharray="4 5"/>
<text x="294.29" y="206.00" font-family="'Space Mono', 'Cascadia Mono', Consolas, monospace" font-size="14" fill="#6E7781" text-anchor="middle">Sep</text>
<line x1="597.71" y1="220.00" x2="597.71" y2="840.00" stroke="#D7DCE2" stroke-width="1" stroke-dasharray="4 5"/>
<text x="597.71" y="206.00" font-family="'Space Mono', 'Cascadia Mono', Consolas, monospace" font-size="14" fill="#6E7781" text-anchor="middle">Oct</text>
<line x1="911.26" y1="220.00" x2="911.26" y2="840.00" stroke="#D7DCE2" stroke-width="1" stroke-dasharray="4 5"/>
<text x="911.26" y="206.00" font-family="'Space Mono', 'Cascadia Mono', Consolas, monospace" font-size="14" fill="#6E7781" text-anchor="middle">Nov</text>
<line x1="1214.69" y1="220.00" x2="1214.69" y2="840.00" stroke="#D7DCE2" stroke-width="1" stroke-dasharray="4 5"/>
<text x="1214.69" y="206.00" font-family="'Space Mono', 'Cascadia Mono', Consolas, monospace" font-size="14" fill="#6E7781" text-anchor="middle">Dec</text>
<rect x="365.09" y="190.00" width="60.69" height="12.00" rx="5" fill="#B8806A" stroke="none" stroke-width="0" opacity="0.45"/>
<text x="395.43" y="183.00" font-family="'IBM Plex Sans', 'Segoe UI', Arial, Helvetica, sans-serif" font-size="12" fill="#6E7781" text-anchor="middle">rehearsal 1</text>
<rect x="789.89" y="190.00" width="60.69" height="12.00" rx="5" fill="#B8806A" stroke="none" stroke-width="0" opacity="0.45"/>
<text x="820.23" y="183.00" font-family="'IBM Plex Sans', 'Segoe UI', Arial, Helvetica, sans-serif" font-size="12" fill="#6E7781" text-anchor="middle">rehearsal 2</text>
<rect x="1214.69" y="190.00" width="30.34" height="12.00" rx="5" fill="#B8806A" stroke="none" stroke-width="0" opacity="0.45"/>
<text x="1229.86" y="183.00" font-family="'IBM Plex Sans', 'Segoe UI', Arial, Helvetica, sans-serif" font-size="12" fill="#6E7781" text-anchor="middle">rehearsal 3</text>
<rect x="1242.03" y="190.00" width="6.00" height="12.00" rx="3" fill="#B8806A" stroke="none" stroke-width="0" opacity="0.55"/>
<rect x="1255.14" y="190.00" width="10.11" height="12.00" rx="5" fill="#B8806A" stroke="none" stroke-width="0" opacity="0.45"/>
<text x="1260.20" y="183.00" font-family="'IBM Plex Sans', 'Segoe UI', Arial, Helvetica, sans-serif" font-size="12" fill="#6E7781" text-anchor="middle">performance</text>
<rect x="1262.26" y="190.00" width="6.00" height="12.00" rx="3" fill="#B8806A" stroke="none" stroke-width="0" opacity="0.55"/>
<line x1="92.00" y1="816.00" x2="1508.00" y2="816.00" stroke="#D7DCE2" stroke-width="1"/>
<text x="80.00" y="820.00" font-family="'Space Mono', 'Cascadia Mono', Consolas, monospace" font-size="13" fill="#6E7781" text-anchor="end">0</text>
<line x1="92.00" y1="675.50" x2="1508.00" y2="675.50" stroke="#D7DCE2" stroke-width="1"/>
<text x="80.00" y="679.50" font-family="'Space Mono', 'Cascadia Mono', Consolas, monospace" font-size="13" fill="#6E7781" text-anchor="end">968</text>
<line x1="92.00" y1="535.00" x2="1508.00" y2="535.00" stroke="#D7DCE2" stroke-width="1"/>
<text x="80.00" y="539.00" font-family="'Space Mono', 'Cascadia Mono', Consolas, monospace" font-size="13" fill="#6E7781" text-anchor="end">1936</text>
<line x1="92.00" y1="394.50" x2="1508.00" y2="394.50" stroke="#D7DCE2" stroke-width="1"/>
<text x="80.00" y="398.50" font-family="'Space Mono', 'Cascadia Mono', Consolas, monospace" font-size="13" fill="#6E7781" text-anchor="end">2904</text>
<line x1="92.00" y1="254.00" x2="1508.00" y2="254.00" stroke="#D7DCE2" stroke-width="1"/>
<text x="80.00" y="258.00" font-family="'Space Mono', 'Cascadia Mono', Consolas, monospace" font-size="13" fill="#6E7781" text-anchor="end">3872</text>
<rect x="75.00" y="670.84" width="34.00" height="145.16" rx="2" fill="#C59B42" stroke="none" stroke-width="0" opacity="0.84"/>
<rect x="145.80" y="801.84" width="34.00" height="14.16" rx="2" fill="#7F8287" stroke="none" stroke-width="0" opacity="0.84"/>
<rect x="145.80" y="797.79" width="34.00" height="4.05" rx="2" fill="#A16DA8" stroke="none" stroke-width="0" opacity="0.84"/>
<rect x="145.80" y="573.23" width="34.00" height="224.56" rx="2" fill="#C59B42" stroke="none" stroke-width="0" opacity="0.84"/>
<rect x="287.40" y="811.25" width="34.00" height="4.75" rx="2" fill="#A16DA8" stroke="none" stroke-width="0" opacity="0.84"/>
<rect x="358.20" y="803.39" width="34.00" height="12.61" rx="2" fill="#A16DA8" stroke="none" stroke-width="0" opacity="0.84"/>
<rect x="358.20" y="796.56" width="34.00" height="6.82" rx="2" fill="#6E8B5E" stroke="none" stroke-width="0" opacity="0.84"/>
<rect x="429.00" y="780.59" width="34.00" height="35.41" rx="2" fill="#A16DA8" stroke="none" stroke-width="0" opacity="0.84"/>
<rect x="499.80" y="729.62" width="34.00" height="86.38" rx="2" fill="#7F8287" stroke="none" stroke-width="0" opacity="0.84"/>
<rect x="499.80" y="725.40" width="34.00" height="4.22" rx="2" fill="#A16DA8" stroke="none" stroke-width="0" opacity="0.84"/>
<rect x="499.80" y="580.24" width="34.00" height="145.16" rx="2" fill="#C59B42" stroke="none" stroke-width="0" opacity="0.84"/>
<rect x="570.60" y="808.37" width="34.00" height="7.63" rx="2" fill="#7F8287" stroke="none" stroke-width="0" opacity="0.84"/>
<rect x="570.60" y="774.43" width="34.00" height="33.94" rx="2" fill="#C86E5A" stroke="none" stroke-width="0" opacity="0.84"/>
<rect x="570.60" y="767.80" width="34.00" height="6.62" rx="2" fill="#C59B42" stroke="none" stroke-width="0" opacity="0.84"/>
<rect x="641.40" y="807.92" width="34.00" height="8.08" rx="2" fill="#7F8287" stroke="none" stroke-width="0" opacity="0.84"/>
<rect x="712.20" y="785.23" width="34.00" height="30.77" rx="2" fill="#7F8287" stroke="none" stroke-width="0" opacity="0.84"/>
<rect x="712.20" y="260.97" width="34.00" height="524.26" rx="2" fill="#C59B42" stroke="none" stroke-width="0" opacity="0.84"/>
<rect x="712.20" y="254.00" width="34.00" height="6.97" rx="2" fill="#6E8B5E" stroke="none" stroke-width="0" opacity="0.84"/>
<rect x="783.00" y="808.40" width="34.00" height="7.60" rx="2" fill="#7F8287" stroke="none" stroke-width="0" opacity="0.84"/>
<rect x="783.00" y="804.48" width="34.00" height="3.92" rx="2" fill="#6E8B5E" stroke="none" stroke-width="0" opacity="0.84"/>
<rect x="853.80" y="813.98" width="34.00" height="2.02" rx="2" fill="#A16DA8" stroke="none" stroke-width="0" opacity="0.84"/>
<rect x="924.60" y="805.39" width="34.00" height="10.61" rx="2" fill="#7F8287" stroke="none" stroke-width="0" opacity="0.84"/>
<rect x="924.60" y="791.11" width="34.00" height="14.28" rx="2" fill="#C86E5A" stroke="none" stroke-width="0" opacity="0.84"/>
<rect x="924.60" y="784.03" width="34.00" height="7.08" rx="2" fill="#A16DA8" stroke="none" stroke-width="0" opacity="0.84"/>
<rect x="924.60" y="775.32" width="34.00" height="8.71" rx="2" fill="#C59B42" stroke="none" stroke-width="0" opacity="0.84"/>
<rect x="995.40" y="814.61" width="34.00" height="1.39" rx="2" fill="#C86E5A" stroke="none" stroke-width="0" opacity="0.84"/>
<rect x="1066.20" y="803.61" width="34.00" height="12.39" rx="2" fill="#C86E5A" stroke="none" stroke-width="0" opacity="0.84"/>
<rect x="1137.00" y="811.10" width="34.00" height="4.90" rx="2" fill="#C86E5A" stroke="none" stroke-width="0" opacity="0.84"/>
<rect x="1137.00" y="693.37" width="34.00" height="117.73" rx="2" fill="#C59B42" stroke="none" stroke-width="0" opacity="0.84"/>
<rect x="1137.00" y="691.20" width="34.00" height="2.18" rx="2" fill="#6E8B5E" stroke="none" stroke-width="0" opacity="0.84"/>
<rect x="1207.80" y="743.42" width="34.00" height="72.58" rx="2" fill="#C59B42" stroke="none" stroke-width="0" opacity="0.84"/>
<rect x="1207.80" y="737.62" width="34.00" height="5.81" rx="2" fill="#6E8B5E" stroke="none" stroke-width="0" opacity="0.84"/>
<rect x="1278.60" y="471.25" width="34.00" height="344.75" rx="2" fill="#C59B42" stroke="none" stroke-width="0" opacity="0.84"/>
<rect x="1420.20" y="628.89" width="34.00" height="187.11" rx="2" fill="#C59B42" stroke="none" stroke-width="0" opacity="0.84"/>
<rect x="1491.00" y="699.88" width="34.00" height="116.12" rx="2" fill="#C59B42" stroke="none" stroke-width="0" opacity="0.84"/>
<text x="108.00" y="250.00" font-family="'IBM Plex Sans', 'Segoe UI', Arial, Helvetica, sans-serif" font-size="20" fill="#1F2328" font-weight="700">Weekly expenses by type (EUR)</text>
<text x="108.00" y="892.00" font-family="'IBM Plex Sans', 'Segoe UI', Arial, Helvetica, sans-serif" font-size="18" fill="#1F2328" font-weight="700">Expense Types</text>
<rect x="110.00" y="914.00" width="18.00" height="12.00" rx="3" fill="#7F8287" stroke="none" stroke-width="0" opacity="0.84"/>
<text x="136.00" y="924.00" font-family="'IBM Plex Sans', 'Segoe UI', Arial, Helvetica, sans-serif" font-size="14" fill="#1F2328">structure</text>
<rect x="290.00" y="914.00" width="18.00" height="12.00" rx="3" fill="#C86E5A" stroke="none" stroke-width="0" opacity="0.84"/>
<text x="316.00" y="924.00" font-family="'IBM Plex Sans', 'Segoe UI', Arial, Helvetica, sans-serif" font-size="14" fill="#1F2328">mechanism</text>
<rect x="470.00" y="914.00" width="18.00" height="12.00" rx="3" fill="#A16DA8" stroke="none" stroke-width="0" opacity="0.84"/>
<text x="496.00" y="924.00" font-family="'IBM Plex Sans', 'Segoe UI', Arial, Helvetica, sans-serif" font-size="14" fill="#1F2328">fabric</text>
<rect x="650.00" y="914.00" width="18.00" height="12.00" rx="3" fill="#C59B42" stroke="none" stroke-width="0" opacity="0.84"/>
<text x="676.00" y="924.00" font-family="'IBM Plex Sans', 'Segoe UI', Arial, Helvetica, sans-serif" font-size="14" fill="#1F2328">service</text>
<rect x="830.00" y="914.00" width="18.00" height="12.00" rx="3" fill="#6E8B5E" stroke="none" stroke-width="0" opacity="0.84"/>
<text x="856.00" y="924.00" font-family="'IBM Plex Sans', 'Segoe UI', Arial, Helvetica, sans-serif" font-size="14" fill="#1F2328">transport</text>
<text x="110.00" y="958.00" font-family="'IBM Plex Sans', 'Segoe UI', Arial, Helvetica, sans-serif" font-size="15" fill="#6E7781"><tspan x="110.00" dy="0">Broad background bands show budget phases 1-3. Bars show weekly spending, not cumulative growth. Rehearsal and</tspan><tspan x="110.00" dy="18">performance markers stay visible here to align expenditure with production milestones. Based on the retrospective</tspan><tspan x="110.00" dy="18">project budget dataset.</tspan></text>
</svg>